<svg id="Layer_1" data-name="Layer 1" xmlns="http://www.w3.org/2000/svg" preserveAspectRatio="xMidYMid meet" viewBox="0 0 410 150"><defs><style>.cls-1{fill:#4f565c;}.cls-2{fill:#4b9ccc;}.cls-3{fill:#8ed1db;}.cls-4{fill:#0095c0;}.cls-5{fill:#ef4d4e;}.cls-6{fill:#77434c;}.cls-7{fill:#6a276f;}</style></defs><title>Logo_color_tagline_RGB_transparant</title><path class="cls-1" d="M190.93,71.41a16.77,16.77,0,0,0,7.64-2c1.28.54,2,2.64,1.42,4.33a18.88,18.88,0,0,1-10.34,2.7c-10.68,0-15.68-6.62-15.68-18s5.27-18.12,16.22-18.12a23.4,23.4,0,0,1,9.67,1.89c.61,2-.47,4.19-1.62,4.73A18,18,0,0,0,191,45.32c-6.62,0-10.07,4.46-10.07,13S184.31,71.41,190.93,71.41Z"/><path class="cls-1" d="M232.64,68.3A3.79,3.79,0,0,1,234.06,73s-4.33,3.45-12.1,3.45c-10.61,0-16.63-6.56-16.63-18s6.08-18.12,16.22-18.12,14.67,7,14.67,17.17V60.8H212.29c.34,6.42,4,10.61,10.07,10.61A21,21,0,0,0,232.64,68.3Zm-3.45-11.56c0-6.29-2-11.42-8.18-11.42-5.75,0-8.72,4.33-8.72,11.42Z"/><path class="cls-1" d="M273.74,39.44c1.76.2,3,1.89,2.77,4.19a11.86,11.86,0,0,1-5.34,2.1,10.12,10.12,0,0,1,3,7.64c0,7.17-6.22,12.84-16.09,12.84a21.06,21.06,0,0,1-6.69-1c-1.76.74-3.31,1.55-3.31,3.38s1.83,2.64,8.92,2.64h5.41c8.52,0,13,3.11,13.11,9.53.07,8.25-8.25,12.57-18.32,12.57s-15.68-4-15.68-9.4c0-5.61,4.73-7.71,6.62-8.25-2.84-.34-5.54-1.69-5.54-5.48s3.79-5.81,5.54-6.42c-3.58-2.16-5.48-6-5.48-10.48,0-7.64,6.42-13,15.48-13,5.48,0,6.83,1.28,9.67,1.28S273.74,39.44,273.74,39.44ZM257.31,88.38c6.89,0,11.29-2.16,11.29-7,0-4.53-4.06-5.27-8-5.27h-6.08c-3.31.74-7,2.3-7,6.22S250.75,88.38,257.31,88.38Zm1.15-27.11c5.07,0,8.79-2.77,8.79-8s-3.52-8-8.79-8-8.79,2.84-8.79,8S253.19,61.28,258.46,61.28Z"/><path class="cls-1" d="M308.15,68.3A3.79,3.79,0,0,1,309.57,73s-4.33,3.45-12.1,3.45c-10.61,0-16.63-6.56-16.63-18s6.08-18.12,16.22-18.12,14.67,7,14.67,17.17V60.8H287.8c.34,6.42,4,10.61,10.07,10.61A21,21,0,0,0,308.15,68.3ZM304.7,56.75c0-6.29-2-11.42-8.18-11.42-5.75,0-8.72,4.33-8.72,11.42Z"/><path class="cls-1" d="M349.45,75.54a8.32,8.32,0,0,1-4.26.88,7.75,7.75,0,0,1-3.92-.74L326.47,59V75.27a6.36,6.36,0,0,1-3.45.68,6.8,6.8,0,0,1-3.51-.68V25.92a6.36,6.36,0,0,1,3.45-.68,6.8,6.8,0,0,1,3.51.68V58l14.47-16.9a7.62,7.62,0,0,1,3.72-.74c2.77,0,3.72.81,3.72.81L334,58Z"/><path class="cls-1" d="M357.9,48.5a3.75,3.75,0,0,1-2.3-4.33,22.26,22.26,0,0,1,13.18-3.85c8.52,0,13.52,3.85,13.52,11.69v18c0,1.49.41,2.16,2.7,2.16a4,4,0,0,1,.54,2,5.41,5.41,0,0,1-4.39,2.16,4.47,4.47,0,0,1-4.73-3.85c-2.64,2.64-6.29,3.85-10.61,3.85-6.35,0-12.3-3.72-12.3-11,0-5.27,3.11-10,14.2-10a29.52,29.52,0,0,1,7.64.88V52.62c0-4.93-2.37-7.23-7.57-7.23A17.11,17.11,0,0,0,357.9,48.5Zm2.57,16.7c0,3.58,2.57,6.22,7.77,6.22a9.91,9.91,0,0,0,7.1-2.91V60.33a25.51,25.51,0,0,0-6.42-.88C362.5,59.45,360.47,62,360.47,65.2Z"/><path class="cls-1" d="M176.21,104.25v12a1.41,1.41,0,0,1-.79.16,1.56,1.56,0,0,1-.83-.16v-12a1.41,1.41,0,0,1,.79-.16A1.63,1.63,0,0,1,176.21,104.25Z"/><path class="cls-1" d="M181.94,104.25l6.4,9.67,0-9.67a1.52,1.52,0,0,1,.81-.16,1.63,1.63,0,0,1,.82.16v12a1.44,1.44,0,0,1-.81.16,1.76,1.76,0,0,1-.81-.14l-6.4-9.62,0,9.6a2.14,2.14,0,0,1-1.61,0v-12a1.34,1.34,0,0,1,.79-.16A1.52,1.52,0,0,1,181.94,104.25Z"/><path class="cls-1" d="M207.09,104.6a1.06,1.06,0,0,1-.54,1.09,4.49,4.49,0,0,0-2.28-.54c-2.58,0-4.09,2.09-4.09,5.11s1.51,5.09,4.09,5.09a4.44,4.44,0,0,0,2.28-.56,1,1,0,0,1,.54,1.09,5.22,5.22,0,0,1-2.88.63c-3.91,0-5.65-2.49-5.65-6.25s1.74-6.28,5.67-6.28A5.09,5.09,0,0,1,207.09,104.6Z"/><path class="cls-1" d="M211.67,104.25v11h5.12a.81.81,0,0,1,.16.56.92.92,0,0,1-.16.6h-6.74V104.25a1.41,1.41,0,0,1,.79-.16A1.63,1.63,0,0,1,211.67,104.25Z"/><path class="cls-1" d="M224,116.5c-4,0-5.51-2.49-5.51-6.25S219.92,104,224,104s5.53,2.53,5.53,6.28S228,116.5,224,116.5Zm0-1.16c2.67,0,3.9-2.07,3.9-5.09s-1.23-5.11-3.9-5.11-3.9,2.09-3.9,5.11S221.29,115.34,224,115.34Z"/><path class="cls-1" d="M240,104.73a1,1,0,0,1-.47,1.12,6,6,0,0,0-2.77-.7c-1.6,0-2.75.77-2.75,2.05,0,1,.79,1.4,2.49,2l1.79.65c1.93.72,2.7,1.53,2.7,3,0,2.18-1.58,3.6-4.6,3.6a7,7,0,0,1-4.12-1.18,1.07,1.07,0,0,1,.42-1.11,7.82,7.82,0,0,0,3.79,1.12c1.7,0,2.93-.86,2.93-2.21,0-.9-.61-1.39-1.7-1.79l-2.84-1a3.18,3.18,0,0,1-2.46-3c0-2,1.47-3.42,4.35-3.42A6.22,6.22,0,0,1,240,104.73Z"/><path class="cls-1" d="M250.07,110.39H245.7v4.83h5.67a.81.81,0,0,1,.16.56.92.92,0,0,1-.16.6h-7.3V104.09H251a1,1,0,0,1,.14.58,1.07,1.07,0,0,1-.14.6H245.7v4h4.37a.87.87,0,0,1,.16.56A.93.93,0,0,1,250.07,110.39Z"/><path class="cls-1" d="M267.69,104.6a1.05,1.05,0,0,1-.54,1.09,4.49,4.49,0,0,0-2.28-.54c-2.58,0-4.09,2.09-4.09,5.11s1.51,5.09,4.09,5.09a4.44,4.44,0,0,0,2.28-.56,1,1,0,0,1,.54,1.09,5.22,5.22,0,0,1-2.88.63c-3.91,0-5.65-2.49-5.65-6.25s1.74-6.28,5.67-6.28A5.09,5.09,0,0,1,267.69,104.6Z"/><path class="cls-1" d="M275.25,116.5c-4,0-5.51-2.49-5.51-6.25s1.47-6.28,5.51-6.28,5.53,2.53,5.53,6.28S279.31,116.5,275.25,116.5Zm0-1.16c2.67,0,3.9-2.07,3.9-5.09s-1.23-5.11-3.9-5.11-3.9,2.09-3.9,5.11S272.59,115.34,275.25,115.34Z"/><path class="cls-1" d="M289.21,116.5c-4,0-5.51-2.49-5.51-6.25s1.47-6.28,5.51-6.28,5.53,2.53,5.53,6.28S293.26,116.5,289.21,116.5Zm0-1.16c2.67,0,3.9-2.07,3.9-5.09s-1.23-5.11-3.9-5.11-3.9,2.09-3.9,5.11S286.54,115.34,289.21,115.34Z"/><path class="cls-1" d="M301.9,111.5h-2.05v4.72a1.4,1.4,0,0,1-.79.16,1.64,1.64,0,0,1-.83-.16V104.48a10.09,10.09,0,0,1,3.54-.51c3,0,4.49,1.51,4.49,3.72S304.72,111.5,301.9,111.5Zm0-6.35a6.59,6.59,0,0,0-2,.21v5h1.95a2.52,2.52,0,0,0,2.84-2.62A2.46,2.46,0,0,0,301.88,105.15Z"/><path class="cls-1" d="M315.39,110.39H311v4.83h5.67a.81.81,0,0,1,.16.56.92.92,0,0,1-.16.6h-7.3V104.09h6.91a1,1,0,0,1,.14.58,1.07,1.07,0,0,1-.14.6H311v4h4.37a.87.87,0,0,1,.16.56A.93.93,0,0,1,315.39,110.39Z"/><path class="cls-1" d="M321.59,116.22a1.4,1.4,0,0,1-.79.16,1.64,1.64,0,0,1-.83-.16V104.46a10.77,10.77,0,0,1,3.32-.49c3.35,0,4.74,1.51,4.74,3.7a3.38,3.38,0,0,1-2.93,3.6l3.47,4.93a2.55,2.55,0,0,1-1,.18,2,2,0,0,1-.79-.14L323.87,112a.93.93,0,0,0-.88-.51h-1.4Zm1.75-11.07a7.39,7.39,0,0,0-1.75.21v5h2.18a2.43,2.43,0,0,0,2.63-2.63C326.39,106.23,325.55,105.15,323.34,105.15Z"/><path class="cls-1" d="M336.73,104.25l5.07,11.95a1.43,1.43,0,0,1-.82.18,1.3,1.3,0,0,1-.77-.16L338.78,113h-5.7l-1.4,3.26a1.37,1.37,0,0,1-.77.16,1.54,1.54,0,0,1-.84-.18l5.07-11.95a1.41,1.41,0,0,1,.79-.16A1.51,1.51,0,0,1,336.73,104.25Zm-3.18,7.53h4.74l-2-4.6c-.09-.21-.37-1-.39-1.12,0,.09-.25.72-.4,1.11Z"/><path class="cls-1" d="M341.93,105.27a1,1,0,0,1-.14-.6,1,1,0,0,1,.14-.58h8.86a.9.9,0,0,1,.16.58,1,1,0,0,1-.16.6h-3.61v10.95a1.41,1.41,0,0,1-.79.16,1.67,1.67,0,0,1-.84-.16V105.27Z"/><path class="cls-1" d="M355.42,104.25v12a1.4,1.4,0,0,1-.79.16,1.56,1.56,0,0,1-.83-.16v-12a1.41,1.41,0,0,1,.79-.16A1.63,1.63,0,0,1,355.42,104.25Z"/><path class="cls-1" d="M364.46,116.5c-4,0-5.51-2.49-5.51-6.25s1.47-6.28,5.51-6.28,5.53,2.53,5.53,6.28S368.51,116.5,364.46,116.5Zm0-1.16c2.67,0,3.9-2.07,3.9-5.09s-1.23-5.11-3.9-5.11-3.9,2.09-3.9,5.11S361.79,115.34,364.46,115.34Z"/><path class="cls-1" d="M375.11,104.25l6.41,9.67,0-9.67a1.52,1.52,0,0,1,.81-.16,1.63,1.63,0,0,1,.82.16v12a1.44,1.44,0,0,1-.81.16,1.76,1.76,0,0,1-.81-.14l-6.41-9.62,0,9.6a2.14,2.14,0,0,1-1.61,0v-12a1.34,1.34,0,0,1,.79-.16A1.51,1.51,0,0,1,375.11,104.25Z"/><path class="cls-2" d="M140.56,29.44c.05,1,.07,1.87.07,2.86-.08,31.57-28.06,64.83-62.48,74.28-22.46,6.16-42.1.68-53-12.65,1.6,29.74,28.75,46.27,62.1,37.11,34.43-9.45,62.4-42.7,62.48-74.28C149.73,45.8,146.38,36.54,140.56,29.44Z"/><path class="cls-3" d="M118.19,20.18h0a43.4,43.4,0,0,0-10.73,1.4C84.86,27.33,65.89,49.5,65.83,70.21a32.15,32.15,0,0,0,.44,5.44.81.81,0,0,0,.87.69,1.71,1.71,0,0,0,1.53-1.09C74.58,59.71,89.35,45.78,106.61,41a44.09,44.09,0,0,1,11.65-1.64c8.23,0,15.36,2.64,20.47,7.32a58.77,58.77,0,0,0,1.9-14.43q0-1.45-.07-2.86C135.39,23.55,127.5,20.18,118.19,20.18Z"/><path class="cls-4" d="M149.7,56.59v-.31h0v-.1h0v0h0a42.88,42.88,0,0,0-7-23.87l-.08-.12-.17-.25a24.79,24.79,0,0,0-1.87-2.41q.07,1.41.07,2.86a58.77,58.77,0,0,1-1.9,14.43,25.2,25.2,0,0,1,7,11,30.49,30.49,0,0,1,1.41,9.45,40.1,40.1,0,0,1-2.61,13.77,63.15,63.15,0,0,0,5.18-23.52h0v0h0v0h0v0h0v0h0v-.33h0v-.26Z"/><path class="cls-5" d="M58.9,32.13a3.23,3.23,0,0,0-2,.77c-20,15.73-32.91,39.24-31.81,61,6.08,7.41,14.87,12.4,25.33,14.3a41.27,41.27,0,0,1-8.58-22C40.18,69.16,47.34,50.78,60,35.72,61.48,33.89,60.53,32.13,58.9,32.13Z"/><path class="cls-6" d="M25.11,93.93c0,.76.09,1.51.16,2.26,2.29,22.88,20.12,37.38,44,37.38A67.71,67.71,0,0,0,87.21,131q2.77-.76,5.49-1.72a84.57,84.57,0,0,0,9.51-4.05,62.09,62.09,0,0,1-12.93,1.35c-14.22,0-26.31-5.33-34.83-14.08a38.31,38.31,0,0,1-4-4.31c-10.46-1.9-19.24-6.89-25.33-14.3"/><path class="cls-7" d="M89.28,126.63c-14.22,0-26.31-5.33-34.83-14.08a38.32,38.32,0,0,1-4-4.31c-10.46-1.9-19.24-6.89-25.33-14.3q.06,1.15.17,2.29c2.3,22.87,20.13,37.35,44,37.35A67.72,67.72,0,0,0,87.21,131q2.77-.76,5.48-1.72a84.53,84.53,0,0,0,9.52-4.06A62.07,62.07,0,0,1,89.28,126.63Z"/></svg>
